<?xml version="1.0" standalone="no"?>
<!DOCTYPE svg PUBLIC "-//W3C//DTD SVG 20010904//EN"
 "http://www.w3.org/TR/2001/REC-SVG-20010904/DTD/svg10.dtd">
<svg version="1.0" xmlns="http://www.w3.org/2000/svg"
 width="90.000000pt" height="90.000000pt" viewBox="0 0 90.000000 90.000000"
 preserveAspectRatio="xMidYMid meet">
<metadata>
Created by potrace 1.11, written by Peter Selinger 2001-2013
</metadata>
<g transform="translate(0.000000,90.000000) scale(0.100000,-0.100000)"
fill="#000000" stroke="none">
<path d="M340 806 c-60 -25 -90 -46 -151 -106 -90 -89 -138 -158 -117 -171 20
-13 51 -11 76 7 12 8 27 12 32 9 6 -3 10 -1 10 4 0 6 6 11 14 11 7 0 29 14 47
31 33 30 36 30 114 25 88 -6 127 -17 194 -54 49 -27 60 -27 249 4 17 3 32 9
32 15 0 6 -4 7 -10 4 -20 -13 -101 -17 -130 -7 -18 7 -30 7 -30 1 0 -5 5 -9
12 -9 22 0 0 -11 -32 -16 -21 -4 -30 -2 -26 5 4 7 1 8 -8 5 -9 -3 -36 6 -62
20 -54 30 -102 44 -161 48 -52 2 -47 10 17 24 45 10 53 9 117 -22 71 -33 89
-37 157 -35 57 1 37 13 -31 17 -36 3 -82 16 -125 36 -61 28 -72 30 -106 20
-20 -6 -56 -14 -80 -17 -29 -4 -54 -16 -75 -36 -17 -16 -37 -27 -44 -25 -7 3
-12 0 -10 -7 1 -6 -9 -13 -23 -15 -22 -2 -23 -1 -7 8 9 6 17 19 17 28 1 22 25
54 34 44 4 -4 7 -2 6 3 -4 20 0 36 9 31 5 -3 11 1 14 9 4 8 31 21 61 30 50 15
83 42 50 42 -7 0 -11 -4 -9 -8 3 -4 -12 -10 -32 -14 -56 -10 -89 -31 -113 -70
-12 -20 -33 -43 -46 -52 -13 -8 -24 -23 -24 -32 0 -10 -16 -24 -37 -34 -49
-22 -53 -15 -7 12 24 15 34 26 30 37 -4 10 13 35 47 71 69 74 211 147 267 139
53 -7 165 -44 222 -72 25 -13 64 -27 85 -32 39 -9 103 2 103 17 0 4 -17 4 -37
-2 -31 -8 -49 -5 -98 13 -161 59 -281 99 -295 99 -8 -1 -49 -15 -90 -33z
m-155 -205 c-3 -6 -11 -11 -17 -11 -6 0 -6 6 2 15 14 17 26 13 15 -4z m-55 5
c0 -2 -7 -9 -15 -16 -13 -11 -14 -10 -9 4 5 14 24 23 24 12z m6 -61 c-20 -15
-36 -19 -36 -10 0 5 38 23 50 24 3 0 -4 -6 -14 -14z"/>
<path d="M322 578 c9 -5 5 -8 -12 -8 -14 0 -42 -9 -63 -20 -20 -11 -46 -22
-57 -23 -22 -4 -40 -17 -22 -17 17 0 15 -27 -3 -34 -16 -6 -20 -44 -7 -61 11
-16 47 -41 39 -28 -9 14 16 11 35 -4 7 -7 26 -16 41 -22 22 -9 29 -7 42 12 10
14 15 17 15 7 0 -12 2 -12 9 -2 11 19 24 17 32 -5 6 -13 8 -14 8 -3 1 11 11
16 36 16 38 0 42 -4 23 -26 -7 -8 -2 -5 12 7 27 24 56 25 71 2 7 -12 9 -11 9
2 0 9 7 16 15 16 10 0 12 -4 5 -12 -6 -7 -3 -11 10 -11 10 0 16 5 13 10 -4 5
4 2 17 -7 20 -14 25 -14 37 -1 8 8 19 11 25 8 7 -4 8 -2 4 4 -7 11 18 17 52
13 15 -2 16 52 2 79 -12 22 -65 43 -102 41 -15 -2 -41 7 -57 18 -16 12 -34 21
-41 21 -6 0 -9 4 -6 8 2 4 -7 9 -22 10 -14 1 -30 6 -35 11 -5 5 -22 5 -38 1
-16 -5 -29 -6 -29 -2 0 4 -16 7 -35 8 -22 0 -31 -3 -23 -8z m78 -41 c0 -19 -5
-23 -34 -23 -19 0 -32 4 -29 9 3 5 -9 6 -27 2 -25 -5 -31 -4 -28 6 5 16 39 27
86 28 27 1 32 -3 32 -22z m96 2 c24 -20 16 -29 -26 -29 -36 0 -42 4 -39 26 0
4 -5 11 -13 16 -9 7 0 8 25 4 22 -3 45 -10 53 -17z m201 -75 c-3 -3 -12 -4
-19 -1 -8 3 -5 6 6 6 11 1 17 -2 13 -5z m-404 -46 c-4 -19 -3 -20 7 -8 9 13
11 12 8 -5 -2 -12 -11 -20 -23 -20 -14 0 -19 6 -17 19 2 11 -1 15 -7 11 -6 -3
-11 -4 -11 0 0 3 10 10 23 15 12 5 23 9 24 9 0 1 -1 -9 -4 -21z m311 10 c-6
-10 -4 -10 8 0 13 10 17 10 22 -4 8 -21 -11 -45 -30 -37 -16 6 -19 53 -3 53 5
0 7 -6 3 -12z"/>
<path d="M700 370 c-14 -10 -36 -22 -49 -25 -13 -3 -40 -19 -60 -36 -60 -48
-168 -41 -289 18 -63 30 -79 34 -115 28 -23 -4 -62 -10 -87 -14 l-45 -7 45 -6
c28 -4 47 -3 51 4 12 19 65 12 128 -16 34 -15 70 -29 81 -31 11 -2 24 -6 28
-9 5 -3 27 -6 50 -7 41 -3 61 -19 22 -19 -10 0 -30 -5 -44 -11 -20 -10 -34 -6
-90 20 -66 31 -89 37 -160 43 -25 2 -41 -2 -44 -10 -2 -8 10 -12 41 -12 62 0
108 -10 100 -23 -3 -5 -1 -7 4 -4 13 8 83 -19 83 -32 0 -5 15 -7 33 -4 17 4
40 6 50 7 9 0 17 4 17 8 0 4 15 8 34 8 19 0 37 6 39 13 3 7 6 5 6 -5 1 -10 5
-18 11 -18 5 0 7 6 4 14 -6 17 85 86 115 86 18 0 19 -3 11 -25 -6 -15 -6 -26
0 -30 5 -3 12 7 16 22 7 28 20 43 38 43 5 0 2 -8 -7 -18 -10 -10 -17 -27 -17
-37 0 -46 -147 -157 -265 -201 -37 -14 -125 9 -262 67 -91 38 -127 48 -107 30
5 -5 26 -14 47 -21 20 -6 37 -15 37 -19 0 -4 8 -7 18 -8 9 -1 35 -9 57 -19 22
-10 45 -18 50 -20 6 -1 35 -9 66 -18 70 -21 104 -27 95 -19 -3 3 30 22 74 42
56 25 96 53 137 93 111 108 141 160 106 185 -22 17 -23 16 -53 -7z m26 -15
c-11 -8 -25 -15 -30 -15 -6 0 -2 7 8 15 11 8 25 15 30 15 6 0 2 -7 -8 -15z
m34 -5 c0 -5 -5 -10 -11 -10 -5 0 -7 5 -4 10 3 6 8 10 11 10 2 0 4 -4 4 -10z
m-20 -34 c0 -2 -8 -10 -17 -17 -16 -13 -17 -12 -4 4 13 16 21 21 21 13z"/>
<path d="M643 308 c-5 -7 -9 -20 -8 -28 0 -8 -2 -17 -5 -20 -3 -3 -16 -20 -29
-37 -16 -24 -37 -37 -74 -48 -54 -16 -106 -43 -57 -30 14 4 45 12 69 18 35 9
51 21 79 60 20 27 37 60 38 73 3 27 0 29 -13 12z"/>
</g>
</svg>
