<svg id="Group_8039" data-name="Group 8039" xmlns="http://www.w3.org/2000/svg" width="48" height="48" viewBox="0 0 48 48">
  <rect id="Rectangle" width="48" height="48" rx="24" fill="#ff0550"/>
  <path id="icons8-calculator" d="M23,3H8A2,2,0,0,0,6,5V25a2,2,0,0,0,2,2H23a2,2,0,0,0,2-2V5A2,2,0,0,0,23,3ZM10.5,16A1.5,1.5,0,1,1,9,17.5,1.5,1.5,0,0,1,10.5,16ZM9,12.5A1.5,1.5,0,1,1,10.5,14,1.5,1.5,0,0,1,9,12.5ZM15.5,24h-5a1.5,1.5,0,0,1,0-3h5a1.5,1.5,0,0,1,0,3Zm0-5A1.5,1.5,0,1,1,17,17.5,1.5,1.5,0,0,1,15.5,19Zm0-5A1.5,1.5,0,1,1,17,12.5,1.5,1.5,0,0,1,15.5,14Zm5,10A1.5,1.5,0,1,1,22,22.5,1.5,1.5,0,0,1,20.5,24Zm0-5A1.5,1.5,0,1,1,22,17.5,1.5,1.5,0,0,1,20.5,19Zm0-5A1.5,1.5,0,1,1,22,12.5,1.5,1.5,0,0,1,20.5,14ZM22,9H9V6H22Z" transform="translate(9 9)" fill="#fff"/>
</svg>
