<svg id="Group_8040" data-name="Group 8040" xmlns="http://www.w3.org/2000/svg" width="48" height="48" viewBox="0 0 48 48">
  <rect id="Rectangle" width="48" height="48" rx="24" fill="#ff0550"/>
  <path id="icons8-cameras" d="M10.236,4A2,2,0,0,0,8.447,5.105l-.395.789A2,2,0,0,1,6.264,7H4A2,2,0,0,0,2,9V20a2,2,0,0,0,2,2H22a2,2,0,0,0,2-2V9a2,2,0,0,0-2-2H19.736a2,2,0,0,1-1.789-1.105l-.395-.789A2,2,0,0,0,15.764,4ZM5,5A.963.963,0,0,0,4,6H6A.963.963,0,0,0,5,5Zm8,3a6,6,0,1,1-6,6A6.006,6.006,0,0,1,13,8Zm8,1a1,1,0,1,1-1,1A1,1,0,0,1,21,9Zm-8,1a4,4,0,1,0,4,4,4,4,0,0,0-4-4Zm13,1v9a4,4,0,0,1-4,4H6a2,2,0,0,0,2,2H26a2,2,0,0,0,2-2V13A2,2,0,0,0,26,11Z" transform="translate(9 9)" fill="#fff"/>
</svg>
