<svg width="32" height="32" viewBox="0 0 32 32" fill="none" xmlns="http://www.w3.org/2000/svg"><path d="M8 28H5.33333C4.59733 28 4 27.4026 4 26.6666V18.6666C4 17.9306 4.59733 17.3333 5.33333 17.3333H8C8.736 17.3333 9.33333 17.9306 9.33333 18.6666V26.6666C9.33333 27.4026 8.736 28 8 28Z" stroke="#35347E" stroke-width="1.5" stroke-linecap="round" stroke-linejoin="round"></path><path d="M17.3333 22.6667H20.4439C21.0213 22.6667 21.5826 22.48 22.0439 22.1333L25.2653 19.7173C26.0693 19.1147 27.1946 19.1947 27.9053 19.9053C28.6946 20.6947 28.6946 21.9733 27.9053 22.7613L25.1413 25.5253C24.3973 26.2693 23.4479 26.7773 22.4159 26.984L18.5093 27.7653C17.7346 27.92 16.9359 27.9013 16.1693 27.7093L12.6359 26.8267C12.2133 26.72 11.7799 26.6667 11.3439 26.6667H9.33325" stroke="#35347E" stroke-width="1.5" stroke-linecap="round" stroke-linejoin="round"></path><path d="M17.3333 22.6666H19.3133C20.4293 22.6666 21.3333 21.7626 21.3333 20.6466V20.2426C21.3333 19.316 20.7026 18.508 19.8039 18.284L16.7479 17.52C16.2506 17.396 15.7413 17.3333 15.2293 17.3333C13.9933 17.3333 12.7839 17.6986 11.7559 18.3853L9.33325 20" stroke="#35347E" stroke-width="1.5" stroke-linecap="round" stroke-linejoin="round"></path><path d="M22.8918 6.87363C24.3696 8.35138 24.3696 10.7473 22.8918 12.225C21.4141 13.7028 19.0182 13.7028 17.5404 12.225C16.0627 10.7473 16.0627 8.35138 17.5404 6.87363C19.0182 5.39588 21.4141 5.39588 22.8918 6.87363Z" stroke="#35347E" stroke-width="1.5" stroke-linecap="round" stroke-linejoin="round"></path><path d="M19.508 5.83335C19.384 5.08002 19.04 4.35602 18.4587 3.77469C16.9813 2.29735 14.5853 2.29735 13.108 3.77469C11.6307 5.25202 11.6307 7.64802 13.108 9.12535C14.028 10.0454 15.3027 10.3907 16.4907 10.1654" stroke="#35347E" stroke-width="1.5" stroke-linecap="round" stroke-linejoin="round"></path></svg>