<svg width="32" height="32" viewBox="0 0 32 32" fill="none" xmlns="http://www.w3.org/2000/svg"><path d="M12 8.89333H20" stroke="#35347E" stroke-width="1.5" stroke-linecap="round" stroke-linejoin="round"></path><path d="M9.33325 14.2267H22.6666" stroke="#35347E" stroke-width="1.5" stroke-linecap="round" stroke-linejoin="round"></path><path d="M18.5926 20.2407C20.0246 21.6726 20.0246 23.9942 18.5926 25.4261C17.1607 26.858 14.8391 26.858 13.4072 25.4261C11.9753 23.9942 11.9753 21.6726 13.4072 20.2407C14.8391 18.8087 17.1607 18.8087 18.5926 20.2407" stroke="#35347E" stroke-width="1.5" stroke-linecap="round" stroke-linejoin="round"></path><path d="M19.6667 22.8333L23.3334 26.5L19.8334 30L16.3201 26.4867" stroke="#35347E" stroke-width="1.5" stroke-linecap="round" stroke-linejoin="round"></path><path d="M15.6801 26.4867L12.1667 30L8.66675 26.5L12.3334 22.8333" stroke="#35347E" stroke-width="1.5" stroke-linecap="round" stroke-linejoin="round"></path><path d="M8.66667 26.5H6.66667C5.19333 26.5 4 25.3067 4 23.8333V6C4 4.52667 5.19333 3.33334 6.66667 3.33334H25.3333C26.8067 3.33334 28 4.52667 28 6V23.8333C28 25.3067 26.8067 26.5 25.3333 26.5H23.3333" stroke="#35347E" stroke-width="1.5" stroke-linecap="round" stroke-linejoin="round"></path></svg>